<svg width="21" height="18" fill="none" xmlns="http://www.w3.org/2000/svg"><path d="M20.778 2.656a8.105 8.105 0 01-2.356.658A4.183 4.183 0 0020.227 1a8.106 8.106 0 01-2.606 1.015 4.08 4.08 0 00-2.328-1.27 4.036 4.036 0 00-2.606.438 4.151 4.151 0 00-1.804 1.967 4.256 4.256 0 00-.254 2.679A11.479 11.479 0 015.944 4.56a11.695 11.695 0 01-3.772-3.102 4.23 4.23 0 00-.556 2.103c0 1.45.724 2.73 1.825 3.48a4.03 4.03 0 01-1.858-.522v.052c0 .966.328 1.902.928 2.649.6.747 1.435 1.26 2.364 1.452a4.054 4.054 0 01-1.855.072 4.183 4.183 0 001.46 2.079 4.06 4.06 0 002.374.826 8.178 8.178 0 01-2.868 1.482 8.085 8.085 0 01-3.207.25 11.448 11.448 0 006.29 1.88c7.548 0 11.675-6.373 11.675-11.9 0-.18-.005-.362-.012-.54a8.425 8.425 0 002.047-2.165v-.001z" fill="#fff"/></svg>