<svg width="21" height="18" viewBox="0 0 21 18" fill="none" xmlns="http://www.w3.org/2000/svg">
<path d="M20.7783 2.65593C20.0293 2.99362 19.2349 3.2154 18.4216 3.31393C19.2789 2.79136 19.9205 1.96894 20.2269 0.999927C19.4224 1.48793 18.5403 1.82993 17.6209 2.01493C17.0034 1.34151 16.1849 0.89489 15.2926 0.744511C14.4003 0.594133 13.4843 0.748418 12.6869 1.18338C11.8896 1.61834 11.2555 2.30961 10.8834 3.14972C10.5113 3.98983 10.4219 4.93171 10.6292 5.82893C8.99761 5.74558 7.40148 5.31345 5.94441 4.56059C4.48734 3.80773 3.20191 2.75097 2.17157 1.45893C1.80686 2.09738 1.6152 2.82315 1.61623 3.56193C1.61623 5.01193 2.34033 6.29293 3.44119 7.04293C2.78971 7.02202 2.15256 6.84271 1.58287 6.51993V6.57193C1.58306 7.53763 1.91094 8.47354 2.5109 9.22099C3.11086 9.96843 3.94598 10.4814 4.87467 10.6729C4.26989 10.84 3.63576 10.8646 3.02027 10.7449C3.28211 11.5762 3.79245 12.3031 4.47984 12.824C5.16723 13.3449 5.99724 13.6337 6.85367 13.6499C6.00249 14.3313 5.0279 14.8349 3.98562 15.1321C2.94333 15.4293 1.85379 15.5142 0.779297 15.3819C2.65498 16.6114 4.83846 17.264 7.06854 17.2619C14.6166 17.2619 18.7444 10.8889 18.7444 5.36193C18.7444 5.18193 18.7395 4.99993 18.7316 4.82193C19.5351 4.23009 20.2285 3.49695 20.7793 2.65693L20.7783 2.65593Z" fill="white"/>
</svg>
