<svg width="20" height="20" viewBox="0 0 20 20" fill="none" xmlns="http://www.w3.org/2000/svg">
<path fill-rule="evenodd" clip-rule="evenodd" d="M0 0.95C0 0.425329 0.407014 0 0.909091 0H4.21487C4.6442 0 5.015 0.313865 5.10415 0.75273L5.7783 4.07143H19.0909C19.3636 4.07143 19.6219 4.19936 19.7946 4.41994C19.9672 4.64052 20.036 4.93044 19.9819 5.20976L18.6582 12.0491C18.5359 12.656 18.2032 13.1888 17.7335 13.5613C17.2672 13.9312 16.6922 14.1232 16.1084 14.1143H8.08995C7.50613 14.1232 6.93114 13.9312 6.46488 13.5613C5.9953 13.1889 5.66274 12.6563 5.54031 12.0497L4.16067 5.25811C4.15445 5.23275 4.1492 5.20698 4.14498 5.18086L3.47851 1.9H0.909091C0.407014 1.9 0 1.47467 0 0.95ZM6.16427 5.97143L7.31932 11.6575C7.34813 11.8004 7.4295 11.9411 7.56411 12.0479C7.69978 12.1555 7.87746 12.218 8.06622 12.2144L8.08264 12.2143H16.1157L16.1321 12.2144C16.3209 12.218 16.4986 12.1555 16.6342 12.0479C16.7679 11.9418 16.8491 11.8023 16.8784 11.6603L17.9795 5.97143H6.16427ZM5.7375 18.2357C5.7375 17.2094 6.56567 16.4714 7.47304 16.4714C8.38041 16.4714 9.20858 17.2094 9.20858 18.2357C9.20858 19.262 8.38041 20 7.47304 20C6.56567 20 5.7375 19.262 5.7375 18.2357ZM15.8284 18.2357C15.8284 17.2094 16.6566 16.4714 17.5639 16.4714C18.4713 16.4714 19.2995 17.2094 19.2995 18.2357C19.2995 19.262 18.4713 20 17.5639 20C16.6566 20 15.8284 19.262 15.8284 18.2357Z" fill="#151C22"/>
</svg>
