<svg width="21" height="20" viewBox="0 0 21 20" fill="none" xmlns="http://www.w3.org/2000/svg">
<path d="M11.4523 0.094077C9.05991 -0.235068 6.62928 0.312629 4.60918 1.63604C2.58909 2.95944 1.11596 4.96918 0.46182 7.29414C-0.192322 9.61911 0.0166997 12.1023 1.05029 14.2851C2.08388 16.468 3.87223 18.2031 6.08512 19.1701C6.02528 18.4019 6.08021 17.6291 6.24809 16.8771C6.43306 16.0381 7.54389 11.4141 7.54389 11.4141C7.32269 10.9182 7.21215 10.38 7.21994 9.83708C7.21994 8.35208 8.0768 7.24408 9.14263 7.24408C9.33411 7.24129 9.52394 7.27977 9.69922 7.35691C9.8745 7.43404 10.0311 7.54802 10.1584 7.6911C10.2857 7.83418 10.3807 8.00299 10.437 8.18607C10.4932 8.36914 10.5094 8.56219 10.4844 8.75208C10.4844 9.65208 9.90651 11.0141 9.60456 12.2921C9.54488 12.5265 9.5411 12.7716 9.5935 13.0077C9.64591 13.2438 9.75304 13.4643 9.90627 13.6514C10.0595 13.8385 10.2545 13.987 10.4756 14.0849C10.6968 14.1828 10.9378 14.2274 11.1793 14.2151C13.077 14.2151 14.3488 11.7841 14.3488 8.91408C14.3488 6.71408 12.892 5.06608 10.2065 5.06608C9.56394 5.04111 8.92305 5.147 8.32269 5.37733C7.72234 5.60766 7.17506 5.95762 6.71407 6.40597C6.25308 6.85431 5.88801 7.39168 5.64101 7.98545C5.39402 8.57922 5.27026 9.21701 5.27725 9.86008C5.24862 10.5734 5.47872 11.273 5.92515 11.8301C6.00856 11.8924 6.06948 11.9801 6.09869 12.08C6.12791 12.1799 6.12385 12.2867 6.08712 12.3841C6.04113 12.5681 5.92515 13.0071 5.87915 13.1681C5.86959 13.2227 5.84733 13.2743 5.81419 13.3187C5.78104 13.3631 5.73792 13.3991 5.68831 13.4238C5.6387 13.4486 5.58399 13.4613 5.52856 13.461C5.47314 13.4607 5.41857 13.4473 5.36923 13.4221C3.98546 12.8681 3.33356 11.3451 3.33356 9.60608C3.33356 6.75908 5.71718 3.35108 10.4864 3.35108C14.2818 3.35108 16.8054 6.12808 16.8054 9.09808C16.8054 13.0071 14.6288 15.9461 11.4123 15.9461C10.9315 15.9614 10.4547 15.8553 10.0258 15.6375C9.59696 15.4198 9.22992 15.0973 8.95866 14.7001C8.95866 14.7001 8.38075 17.0161 8.26677 17.4541C8.0341 18.2108 7.69077 18.9289 7.24793 19.5851C8.17079 19.8651 9.12963 20.0051 10.0935 20.0011C11.4068 20.0021 12.7075 19.7441 13.921 19.2417C15.1345 18.7392 16.237 18.0024 17.1654 17.0732C18.0938 16.144 18.8298 15.0408 19.3313 13.8268C19.8327 12.6127 20.0899 11.3117 20.0879 9.99808C20.0866 7.58308 19.2118 5.25007 17.6249 3.42986C16.038 1.60964 13.8462 0.425141 11.4543 0.095077L11.4523 0.094077Z" fill="white"/>
</svg>
