<svg width="20" height="20" viewBox="0 0 20 20" fill="none" xmlns="http://www.w3.org/2000/svg"><path fill-rule="evenodd" clip-rule="evenodd" d="M0 .95C0 .425.407 0 .91 0h3.305c.43 0 .8.314.89.753l.673 3.318h13.313c.273 0 .53.128.704.349.172.22.241.51.187.79l-1.324 6.84a2.58 2.58 0 01-.925 1.511 2.552 2.552 0 01-1.625.553H8.09a2.552 2.552 0 01-1.625-.553 2.58 2.58 0 01-.925-1.511L4.16 5.258a.981.981 0 01-.015-.077L3.479 1.9H.909C.407 1.9 0 1.475 0 .95zm6.164 5.021l1.155 5.687a.67.67 0 00.245.39c.136.107.313.17.502.166h8.066a.785.785 0 00.502-.166.67.67 0 00.244-.388l1.102-5.689H6.164zm-.426 12.265a1.75 1.75 0 011.735-1.765 1.75 1.75 0 011.736 1.765A1.75 1.75 0 017.473 20a1.75 1.75 0 01-1.736-1.764zm10.09 0a1.75 1.75 0 011.736-1.765 1.75 1.75 0 011.735 1.765A1.75 1.75 0 0117.564 20a1.75 1.75 0 01-1.736-1.764z" fill="#151C22"/></svg>